<?xml version="1.0" encoding="UTF-8" ?>
<!DOCTYPE svg PUBLIC "-//W3C//DTD SVG 1.1//EN" "http://www.w3.org/Graphics/SVG/1.1/DTD/svg11.dtd">
<svg width="913pt" height="229pt" viewBox="0 0 913 229" version="1.1" xmlns="http://www.w3.org/2000/svg">
<g id="#ffffffff">
<path fill="#ffffff" opacity="1.00" d=" M 0.00 0.00 L 913.00 0.00 L 913.00 229.00 L 0.00 229.00 L 0.00 0.00 M 555.03 19.63 C 531.04 21.59 506.62 27.55 486.76 41.72 C 471.24 52.60 459.55 68.85 454.51 87.16 C 449.77 104.66 449.78 123.52 454.46 141.03 C 459.42 159.33 470.86 175.72 486.22 186.82 C 504.91 200.64 528.02 207.00 550.86 209.33 C 563.56 210.11 576.31 210.02 589.01 209.23 C 612.43 206.75 635.79 201.42 657.22 191.47 C 657.16 161.80 657.21 132.13 657.20 102.45 C 626.72 102.44 596.23 102.46 565.75 102.44 C 561.94 111.50 558.16 120.58 554.26 129.60 C 578.30 129.59 602.35 129.59 626.40 129.59 C 626.40 143.88 626.37 158.17 626.41 172.47 C 597.44 181.73 565.80 185.25 536.09 177.36 C 522.90 173.69 510.07 167.47 500.45 157.53 C 488.81 145.98 482.68 129.38 483.28 113.06 C 482.97 97.32 489.18 81.50 500.42 70.42 C 515.08 55.79 535.91 49.47 556.05 47.38 C 585.90 44.18 616.31 50.28 643.52 62.68 C 647.20 53.46 651.16 44.34 654.62 35.04 C 649.12 33.34 643.75 31.24 638.19 29.75 C 611.36 21.40 583.09 17.76 555.03 19.63 M 765.14 23.96 C 751.20 27.79 737.11 34.55 728.75 46.83 C 721.23 57.56 719.87 71.42 722.17 84.03 C 724.21 93.68 729.52 102.59 737.22 108.79 C 748.87 118.39 763.89 122.51 778.54 124.71 C 799.86 127.40 821.23 129.91 842.52 132.85 C 850.46 134.73 859.02 136.93 864.74 143.18 C 869.83 148.52 870.26 156.74 868.18 163.49 C 865.22 171.09 857.75 175.71 850.32 178.17 C 835.72 183.12 820.09 182.79 804.88 182.31 C 778.39 180.60 752.44 173.33 728.42 162.12 C 724.26 171.47 720.75 181.10 716.45 190.40 C 740.35 200.85 766.01 206.94 791.92 209.39 C 811.25 210.48 830.84 211.05 849.94 207.37 C 864.29 204.50 879.10 199.21 889.16 188.07 C 897.82 178.70 901.36 165.51 900.66 152.96 C 900.81 139.04 894.65 125.00 883.52 116.45 C 869.51 105.53 851.40 101.91 834.10 100.30 C 815.78 97.82 797.33 96.35 779.04 93.50 C 770.82 91.73 761.99 89.23 756.35 82.56 C 752.24 77.83 751.75 70.93 753.46 65.12 C 755.74 58.31 762.11 53.93 768.53 51.41 C 781.07 46.66 794.66 45.99 807.94 46.16 C 833.64 45.75 859.14 52.08 882.48 62.63 C 886.50 54.06 889.47 45.02 893.38 36.40 C 876.25 29.37 858.33 24.25 840.02 21.51 C 815.20 18.20 789.56 17.80 765.14 23.96 M 7.61 22.85 C 7.60 32.09 7.61 41.32 7.60 50.56 C 33.13 50.57 58.65 50.56 84.17 50.56 C 84.15 102.66 84.19 154.76 84.15 206.86 C 94.58 206.83 105.02 206.85 115.45 206.85 C 115.44 154.75 115.44 102.66 115.44 50.56 C 140.92 50.58 166.40 50.54 191.88 50.58 C 191.88 41.33 191.88 32.09 191.88 22.84 C 130.45 22.85 69.03 22.84 7.61 22.85 M 286.37 28.16 C 256.23 87.68 226.35 147.34 196.10 206.81 C 207.20 206.90 218.30 206.82 229.40 206.85 C 236.72 192.06 244.35 177.42 251.69 162.64 C 288.87 162.67 326.04 162.65 363.22 162.65 C 370.68 177.36 378.16 192.06 385.55 206.81 C 397.06 206.88 408.57 206.84 420.09 206.84 C 388.70 145.58 357.77 84.09 326.44 22.80 C 314.15 22.95 301.86 22.74 289.58 22.90 C 287.78 24.02 287.46 26.45 286.37 28.16 Z" />
<path fill="#ffffff" opacity="1.00" d=" M 307.27 50.53 C 322.08 78.77 336.05 107.45 350.60 135.84 C 321.74 135.92 292.88 135.90 264.03 135.85 C 278.45 107.41 293.15 79.11 307.27 50.53 Z" />
</g>
<g id="#000000ff">
<path fill="#000000" opacity="1.00" d=" M 555.03 19.63 C 583.09 17.76 611.36 21.40 638.19 29.75 C 643.75 31.24 649.12 33.34 654.62 35.04 C 651.16 44.34 647.20 53.46 643.52 62.68 C 616.31 50.28 585.90 44.18 556.05 47.38 C 535.91 49.47 515.08 55.79 500.42 70.42 C 489.18 81.50 482.97 97.32 483.28 113.06 C 482.68 129.38 488.81 145.98 500.45 157.53 C 510.07 167.47 522.90 173.69 536.09 177.36 C 565.80 185.25 597.44 181.73 626.41 172.47 C 626.37 158.17 626.40 143.88 626.40 129.59 C 602.35 129.59 578.30 129.59 554.26 129.60 C 558.16 120.58 561.94 111.50 565.75 102.44 C 596.23 102.46 626.72 102.44 657.20 102.45 C 657.21 132.13 657.16 161.80 657.22 191.47 C 635.79 201.42 612.43 206.75 589.01 209.23 C 576.31 210.02 563.56 210.11 550.86 209.33 C 528.02 207.00 504.91 200.64 486.22 186.82 C 470.86 175.72 459.42 159.33 454.46 141.03 C 449.78 123.52 449.77 104.66 454.51 87.16 C 459.55 68.85 471.24 52.60 486.76 41.72 C 506.62 27.55 531.04 21.59 555.03 19.63 Z" />
<path fill="#000000" opacity="1.00" d=" M 765.14 23.96 C 789.56 17.80 815.20 18.20 840.02 21.51 C 858.33 24.25 876.25 29.37 893.38 36.40 C 889.47 45.02 886.50 54.06 882.48 62.63 C 859.14 52.08 833.64 45.75 807.94 46.16 C 794.66 45.99 781.07 46.66 768.53 51.41 C 762.11 53.93 755.74 58.31 753.46 65.12 C 751.75 70.93 752.24 77.83 756.35 82.56 C 761.99 89.23 770.82 91.73 779.04 93.50 C 797.33 96.35 815.78 97.82 834.10 100.30 C 851.40 101.91 869.51 105.53 883.52 116.45 C 894.65 125.00 900.81 139.04 900.66 152.96 C 901.36 165.51 897.82 178.70 889.16 188.07 C 879.10 199.21 864.29 204.50 849.94 207.37 C 830.84 211.05 811.25 210.48 791.92 209.39 C 766.01 206.94 740.35 200.85 716.45 190.40 C 720.75 181.10 724.26 171.47 728.42 162.12 C 752.44 173.33 778.39 180.60 804.88 182.31 C 820.09 182.79 835.72 183.12 850.32 178.17 C 857.75 175.71 865.22 171.09 868.18 163.49 C 870.26 156.74 869.83 148.52 864.74 143.18 C 859.02 136.93 850.46 134.73 842.52 132.85 C 821.23 129.91 799.86 127.40 778.54 124.71 C 763.89 122.51 748.87 118.39 737.22 108.79 C 729.52 102.59 724.21 93.68 722.17 84.03 C 719.87 71.42 721.23 57.56 728.75 46.83 C 737.11 34.55 751.20 27.79 765.14 23.96 Z" />
<path fill="#000000" opacity="1.00" d=" M 7.61 22.85 C 69.03 22.84 130.45 22.85 191.88 22.84 C 191.88 32.09 191.88 41.33 191.88 50.58 C 166.40 50.54 140.92 50.58 115.44 50.56 C 115.44 102.66 115.44 154.75 115.45 206.85 C 105.02 206.85 94.58 206.83 84.15 206.86 C 84.19 154.76 84.15 102.66 84.17 50.56 C 58.65 50.56 33.13 50.57 7.60 50.56 C 7.61 41.32 7.60 32.09 7.61 22.85 Z" />
<path fill="#000000" opacity="1.00" d=" M 286.37 28.16 C 287.46 26.45 287.78 24.02 289.58 22.90 C 301.86 22.74 314.15 22.95 326.44 22.80 C 357.77 84.09 388.70 145.58 420.09 206.84 C 408.57 206.84 397.06 206.88 385.55 206.81 C 378.16 192.06 370.68 177.36 363.22 162.65 C 326.04 162.65 288.87 162.67 251.69 162.64 C 244.35 177.42 236.72 192.06 229.40 206.85 C 218.30 206.82 207.20 206.90 196.10 206.81 C 226.35 147.34 256.23 87.68 286.37 28.16 M 307.27 50.53 C 293.15 79.11 278.45 107.41 264.03 135.85 C 292.88 135.90 321.74 135.92 350.60 135.84 C 336.05 107.45 322.08 78.77 307.27 50.53 Z" />
</g>
</svg>
